<svg width="16" height="16" viewBox="0 0 16 16" fill="none" xmlns="http://www.w3.org/2000/svg">
<path d="M12.6654 6.00033V4.00033C12.6654 3.6467 12.5249 3.30756 12.2748 3.05752C12.0248 2.80747 11.6857 2.66699 11.332 2.66699H4.66536C4.31174 2.66699 3.9726 2.80747 3.72256 3.05752C3.47251 3.30756 3.33203 3.6467 3.33203 4.00033V6.00033" stroke="#7E8B97" stroke-width="1.5" stroke-linecap="round" stroke-linejoin="round"/>
<path d="M2 7.33333V10.6667C2 11.0203 2.14048 11.3594 2.39052 11.6095C2.64057 11.8595 2.97971 12 3.33333 12H12.6667C13.0203 12 13.3594 11.8595 13.6095 11.6095C13.8595 11.3594 14 11.0203 14 10.6667V7.33333C14 6.97971 13.8595 6.64057 13.6095 6.39052C13.3594 6.14048 13.0203 6 12.6667 6C12.313 6 11.9739 6.14048 11.7239 6.39052C11.4738 6.64057 11.3333 6.97971 11.3333 7.33333V8.66667H4.66667V7.33333C4.66667 6.97971 4.52619 6.64057 4.27614 6.39052C4.02609 6.14048 3.68696 6 3.33333 6C2.97971 6 2.64057 6.14048 2.39052 6.39052C2.14048 6.64057 2 6.97971 2 7.33333V7.33333Z" stroke="#7E8B97" stroke-width="1.5" stroke-linecap="round" stroke-linejoin="round"/>
<path d="M3.33203 12V13.3333" stroke="#7E8B97" stroke-width="1.5" stroke-linecap="round" stroke-linejoin="round"/>
<path d="M12.668 12V13.3333" stroke="#7E8B97" stroke-width="1.5" stroke-linecap="round" stroke-linejoin="round"/>
</svg>
