<svg width="118" height="24" viewBox="0 0 118 24" fill="none" xmlns="http://www.w3.org/2000/svg">
<line x1="5.04297" y1="11.832" x2="108.595" y2="11.832" stroke="#CCCCCC" stroke-dasharray="3 3"/>
<g clip-path="url(#clip0_2_38138)">
<path d="M57.6223 21.75H56.2569C56.1197 21.75 55.9847 21.7185 55.8642 21.6585C55.7438 21.5984 55.6417 21.5118 55.5674 21.4064C55.493 21.301 55.4488 21.1803 55.4387 21.0552C55.4286 20.9302 55.4529 20.8048 55.5095 20.6906L58.8159 14.0227L53.8512 13.9219L52.0405 15.9267C51.6953 16.3233 51.4199 16.5 50.7171 16.5H49.798C49.6524 16.5043 49.5079 16.4764 49.3766 16.4188C49.2454 16.3612 49.1313 16.2755 49.0439 16.1691C48.9219 16.0186 48.8018 15.7636 48.9188 15.3998L49.9354 12.0717C49.9431 12.0469 49.9524 12.022 49.9626 11.9977C49.9631 11.9953 49.9631 11.9929 49.9626 11.9906C49.952 11.9663 49.9429 11.9414 49.9354 11.9161L48.9178 8.56687C48.8075 8.21016 48.928 7.96078 49.0491 7.81406C49.1304 7.71549 49.2358 7.63573 49.357 7.58118C49.4781 7.52664 49.6116 7.49883 49.7467 7.5H50.7171C51.2419 7.5 51.7512 7.71516 52.0508 8.0625L53.824 10.0336L58.8159 9.96609L55.5105 3.30984C55.4539 3.19568 55.4294 3.07036 55.4394 2.94533C55.4494 2.8203 55.4935 2.69956 55.5678 2.59414C55.642 2.48872 55.744 2.40198 55.8644 2.34186C55.9847 2.28175 56.1197 2.25016 56.2569 2.25H57.6372C57.8297 2.25354 58.019 2.29667 58.1908 2.3762C58.3626 2.45572 58.5126 2.5696 58.6297 2.70937L65.044 9.83438L68.0072 9.76312C68.2242 9.75234 68.8253 9.74859 68.9644 9.74859C71.7988 9.75 73.4915 10.5909 73.4915 12C73.4915 12.4434 73.2976 13.2656 72.0004 13.7888C71.2346 14.0981 70.2128 14.2547 68.9633 14.2547C68.8259 14.2547 68.2262 14.2509 68.0062 14.2402L65.0435 14.168L58.6133 21.293C58.4961 21.4321 58.3462 21.5454 58.1747 21.6246C58.0032 21.7037 57.8144 21.7465 57.6223 21.75V21.75Z" fill="#1262AE"/>
</g>
<circle cx="5.30078" cy="12.332" r="4" fill="white" stroke="#1262AE" stroke-width="2"/>
<circle cx="112.652" cy="11.9141" r="4" fill="white" stroke="#1262AE" stroke-width="2"/>
<defs>
<clipPath id="clip0_2_38138">
<rect width="26.2624" height="24" fill="white" transform="translate(48.0508)"/>
</clipPath>
</defs>
</svg>
