<svg width="119" height="24" viewBox="0 0 119 24" fill="none" xmlns="http://www.w3.org/2000/svg">
<line x1="5.54297" y1="11.832" x2="109.095" y2="11.832" stroke="#CCCCCC" stroke-dasharray="3 3"/>
<path d="M58.1223 21.75H56.7569C56.6197 21.75 56.4847 21.7185 56.3642 21.6585C56.2438 21.5984 56.1417 21.5118 56.0674 21.4064C55.993 21.301 55.9488 21.1803 55.9387 21.0552C55.9286 20.9302 55.9529 20.8048 56.0095 20.6906L59.3159 14.0227L54.3512 13.9219L52.5405 15.9267C52.1953 16.3233 51.9199 16.5 51.2171 16.5H50.298C50.1524 16.5043 50.0079 16.4764 49.8766 16.4188C49.7454 16.3612 49.6313 16.2755 49.5439 16.1691C49.4219 16.0186 49.3018 15.7636 49.4188 15.3998L50.4354 12.0717C50.4431 12.0469 50.4524 12.022 50.4626 11.9977C50.4631 11.9953 50.4631 11.9929 50.4626 11.9906C50.452 11.9663 50.4429 11.9414 50.4354 11.9161L49.4178 8.56687C49.3075 8.21016 49.428 7.96078 49.5491 7.81406C49.6304 7.71549 49.7358 7.63573 49.857 7.58118C49.9781 7.52664 50.1116 7.49883 50.2467 7.5H51.2171C51.7419 7.5 52.2512 7.71516 52.5508 8.0625L54.324 10.0336L59.3159 9.96609L56.0105 3.30984C55.9539 3.19568 55.9294 3.07036 55.9394 2.94533C55.9494 2.8203 55.9935 2.69956 56.0678 2.59414C56.142 2.48872 56.244 2.40198 56.3644 2.34186C56.4847 2.28175 56.6197 2.25016 56.7569 2.25H58.1372C58.3297 2.25354 58.519 2.29667 58.6908 2.3762C58.8626 2.45572 59.0126 2.5696 59.1297 2.70937L65.544 9.83438L68.5072 9.76312C68.7242 9.75234 69.3253 9.74859 69.4644 9.74859C72.2988 9.75 73.9915 10.5909 73.9915 12C73.9915 12.4434 73.7976 13.2656 72.5004 13.7888C71.7346 14.0981 70.7128 14.2547 69.4633 14.2547C69.3259 14.2547 68.7262 14.2509 68.5062 14.2402L65.5435 14.168L59.1133 21.293C58.9961 21.4321 58.8462 21.5454 58.6747 21.6246C58.5032 21.7037 58.3144 21.7465 58.1223 21.75V21.75Z" fill="#1262AE"/>
<circle cx="5.80078" cy="12.332" r="4" fill="white" stroke="#1262AE" stroke-width="2"/>
<circle cx="113.152" cy="11.9141" r="4" fill="white" stroke="#1262AE" stroke-width="2"/>
</svg>
