<svg width="67" height="66" viewBox="0 0 67 66" fill="none" xmlns="http://www.w3.org/2000/svg">
<rect x="0.921875" width="65.387" height="65.387" rx="16" fill="#36DA76"/>
<path d="M42.0841 45.4387C42.0293 44.2653 41.9566 43.0981 41.8984 41.9334C41.7102 38.2902 41.7256 34.5937 41.5288 30.9325C41.3319 27.2987 41.4487 23.6625 41.3448 20.0288C41.3239 19.2736 41.3576 17.7822 40.5762 17.3517C38.8952 16.4269 37.8973 18.9495 37.4696 19.9765C36.6987 21.8406 36.2533 23.8012 35.7027 25.7325C35.2334 27.3856 34.6989 29.0333 34.5178 30.7449C34.3836 32.0292 34.3959 33.4669 35.0669 34.6241C35.4038 35.2057 35.9863 35.6015 36.6496 35.7688C37.3381 35.9449 38.1252 35.7144 38.7784 36.0252C38.9468 36.1066 39.0952 36.2757 39.1628 36.4464C39.3745 36.9967 39.1742 37.8315 39.108 38.3992C38.8983 40.2279 38.6766 42.0748 38.5773 43.9123C38.5186 45.0235 38.4537 46.4467 39.1259 47.4149C39.538 48.0028 40.373 48.5518 41.1265 48.2596C42.2526 47.8285 42.1309 46.3725 42.0841 45.4387V45.4387Z" fill="white"/>
<path d="M27.7556 18.1624C27.432 18.2921 27.5547 19.4492 27.5403 19.8047C27.519 20.4434 27.5626 21.2886 27.4857 22.1163C27.4853 22.1237 27.4842 22.1289 27.4831 22.134C27.4764 22.1915 27.471 22.2536 27.4616 22.3191C27.4515 22.3824 27.4407 22.4434 27.433 22.506C27.364 22.9096 27.2327 23.3875 26.9844 23.6167C26.7026 23.8787 26.071 23.8236 25.8517 23.514C25.4928 23.0099 25.5198 21.8845 25.498 21.8513C25.4834 21.3189 25.4058 19.7086 25.2895 18.6469C25.2798 18.5669 25.2643 18.0857 24.825 18.0343C24.6201 18.012 24.4045 18.1866 24.3346 18.5055C24.1283 19.4468 23.935 21.2411 23.9229 21.5233C23.9204 21.5506 23.9192 21.5825 23.9191 21.6092C23.9191 21.6092 23.918 21.6143 23.9186 21.6166C23.9173 21.6751 23.8475 23.0809 23.4917 23.5659C23.3058 23.8202 22.8231 24.0201 22.3434 23.7511C22.1523 23.6428 22.0214 23.434 21.9291 23.2104C21.4275 21.649 21.8778 19.929 21.9418 19.1094C21.9608 18.8789 22.1696 18.1092 21.7039 18.1349C21.0026 18.173 20.0971 21.1607 19.9351 21.8455C19.5382 23.5493 19.478 25.3699 20.1685 27.0134C20.5521 27.9236 21.3024 28.6686 22.2327 29.0298C22.6439 29.188 23.1009 29.3028 23.5847 29.3694C23.4106 33.2428 23.213 37.2848 23.033 39.5342C22.8945 41.227 22.7311 42.9385 22.7531 44.6383C22.7661 45.6539 22.7554 46.8649 23.422 47.7164C24.1194 48.6061 25.5903 48.1968 25.9875 47.1456C26.4329 45.9605 26.3034 44.5796 26.1517 42.4037C25.9994 40.2256 25.8279 37.2543 25.7334 35.6557C25.5951 33.3017 25.5469 31.2447 25.5336 29.3679C26.7722 29.1909 27.9275 28.6594 28.5741 27.682C28.8577 27.2545 29.0445 26.7768 29.172 26.2853C29.3677 25.5408 29.4631 24.7253 29.4208 23.9574C29.3778 23.2504 28.7968 17.7453 27.7556 18.1624V18.1624Z" fill="white"/>
</svg>
