<svg width="24" height="24" viewBox="0 0 24 24" fill="none" xmlns="http://www.w3.org/2000/svg">
<path fill-rule="evenodd" clip-rule="evenodd" d="M7.42913 5.14286C7.27758 5.14286 7.13223 5.20306 7.02507 5.31022C6.9179 5.41739 6.8577 5.56273 6.8577 5.71429V8C6.8577 8.15155 6.9179 8.2969 7.02507 8.40406C7.13223 8.51122 7.27758 8.57143 7.42913 8.57143C7.58068 8.57143 7.72603 8.51122 7.83319 8.40406C7.94035 8.2969 8.00056 8.15155 8.00056 8V5.71429C8.00056 5.56273 7.94035 5.41739 7.83319 5.31022C7.72603 5.20306 7.58068 5.14286 7.42913 5.14286ZM7.42913 4C7.88379 4 8.31982 4.18061 8.64131 4.5021C8.9628 4.82359 9.14341 5.25963 9.14341 5.71429V8C9.14341 8.45466 8.9628 8.89069 8.64131 9.21218C8.31982 9.53367 7.88379 9.71429 7.42913 9.71429C6.97447 9.71429 6.53844 9.53367 6.21695 9.21218C5.89546 8.89069 5.71484 8.45466 5.71484 8V5.71429C5.71484 5.25963 5.89546 4.82359 6.21695 4.5021C6.53844 4.18061 6.97447 4 7.42913 4Z" fill="#303030"/>
<path fill-rule="evenodd" clip-rule="evenodd" d="M8 6.85756C8 6.54197 8.25584 6.28613 8.57143 6.28613H21.1429C21.4584 6.28613 21.7143 6.54197 21.7143 6.85756C21.7143 7.17315 21.4584 7.42899 21.1429 7.42899H8.57143C8.25584 7.42899 8 7.17315 8 6.85756Z" fill="#303030"/>
<path fill-rule="evenodd" clip-rule="evenodd" d="M2.28516 6.85756C2.28516 6.54197 2.54099 6.28613 2.85658 6.28613H6.28516C6.60075 6.28613 6.85659 6.54197 6.85659 6.85756C6.85659 7.17315 6.60075 7.42899 6.28516 7.42899H2.85658C2.54099 7.42899 2.28516 7.17315 2.28516 6.85756Z" fill="#303030"/>
<path fill-rule="evenodd" clip-rule="evenodd" d="M7.42913 16.5716C7.27758 16.5716 7.13223 16.6318 7.02507 16.7389C6.9179 16.8461 6.8577 16.9914 6.8577 17.143V19.4287C6.8577 19.5803 6.9179 19.7256 7.02507 19.8328C7.13223 19.9399 7.27758 20.0001 7.42913 20.0001C7.58068 20.0001 7.72603 19.9399 7.83319 19.8328C7.94035 19.7256 8.00056 19.5803 8.00056 19.4287V17.143C8.00056 16.9914 7.94035 16.8461 7.83319 16.7389C7.72603 16.6318 7.58068 16.5716 7.42913 16.5716ZM6.21695 15.9308C6.53844 15.6093 6.97447 15.4287 7.42913 15.4287C7.88379 15.4287 8.31982 15.6093 8.64131 15.9308C8.9628 16.2523 9.14341 16.6883 9.14341 17.143V19.4287C9.14341 19.8834 8.9628 20.3194 8.64131 20.6409C8.31982 20.9624 7.88379 21.143 7.42913 21.143C6.97447 21.143 6.53844 20.9624 6.21695 20.6409C5.89546 20.3194 5.71484 19.8834 5.71484 19.4287V17.143C5.71484 16.6883 5.89546 16.2523 6.21695 15.9308Z" fill="#303030"/>
<path fill-rule="evenodd" clip-rule="evenodd" d="M8 18.2853C8 17.9697 8.25584 17.7139 8.57143 17.7139H21.1429C21.4584 17.7139 21.7143 17.9697 21.7143 18.2853C21.7143 18.6009 21.4584 18.8567 21.1429 18.8567H8.57143C8.25584 18.8567 8 18.6009 8 18.2853Z" fill="#303030"/>
<path fill-rule="evenodd" clip-rule="evenodd" d="M2.28516 18.2853C2.28516 17.9697 2.54099 17.7139 2.85658 17.7139H6.28516C6.60075 17.7139 6.85659 17.9697 6.85659 18.2853C6.85659 18.6009 6.60075 18.8567 6.28516 18.8567H2.85658C2.54099 18.8567 2.28516 18.6009 2.28516 18.2853Z" fill="#303030"/>
<path fill-rule="evenodd" clip-rule="evenodd" d="M16.5698 10.8567C16.4182 10.8567 16.2729 10.9169 16.1657 11.0241C16.0585 11.1313 15.9983 11.2766 15.9983 11.4282V13.7139C15.9983 13.8654 16.0585 14.0108 16.1657 14.1179C16.2729 14.2251 16.4182 14.2853 16.5698 14.2853C16.7213 14.2853 16.8667 14.2251 16.9738 14.1179C17.081 14.0108 17.1412 13.8654 17.1412 13.7139V11.4282C17.1412 11.2766 17.081 11.1313 16.9738 11.0241C16.8667 10.9169 16.7213 10.8567 16.5698 10.8567ZM16.5698 9.71387C17.0244 9.71387 17.4604 9.89448 17.7819 10.216C18.1034 10.5375 18.284 10.9735 18.284 11.4282V13.7139C18.284 14.1685 18.1034 14.6046 17.7819 14.926C17.4604 15.2475 17.0244 15.4282 16.5698 15.4282C16.1151 15.4282 15.6791 15.2475 15.3576 14.926C15.0361 14.6046 14.8555 14.1685 14.8555 13.7139V11.4282C14.8555 10.9735 15.0361 10.5375 15.3576 10.216C15.6791 9.89448 16.1151 9.71387 16.5698 9.71387Z" fill="#303030"/>
<path fill-rule="evenodd" clip-rule="evenodd" d="M2.28516 12.5714C2.28516 12.2558 2.54099 12 2.85658 12H15.428C15.7436 12 15.9994 12.2558 15.9994 12.5714C15.9994 12.887 15.7436 13.1429 15.428 13.1429H2.85658C2.54099 13.1429 2.28516 12.887 2.28516 12.5714Z" fill="#303030"/>
<path fill-rule="evenodd" clip-rule="evenodd" d="M17.1406 12.5714C17.1406 12.2558 17.3965 12 17.7121 12H21.1406C21.4562 12 21.7121 12.2558 21.7121 12.5714C21.7121 12.887 21.4562 13.1429 21.1406 13.1429H17.7121C17.3965 13.1429 17.1406 12.887 17.1406 12.5714Z" fill="#303030"/>
</svg>
