<svg width="108" height="16" viewBox="0 0 108 16" fill="none" xmlns="http://www.w3.org/2000/svg">
<path d="M4.52273 8.03266L101.531 8.17057" stroke="#CACACA" stroke-width="0.836813" stroke-linecap="square" stroke-dasharray="1.67 4.18"/>
<path d="M50.368 15.6044H52.0208L56.1528 9.24466L60.6979 9.24466C61.3838 9.24466 61.9375 8.71204 61.9375 8.0522C61.9375 7.39237 61.3838 6.85975 60.6979 6.85975L56.1528 6.85975L52.0208 0.5L50.368 0.5L52.434 6.85978L47.8888 6.85978L46.6492 5.26983H45.4096L46.236 8.05224L45.4096 10.8346H46.6492L47.8888 9.24466H52.434L50.368 15.6044Z" fill="#1262AE"/>
<circle cx="4.61719" cy="8" r="3.66319" fill="white" stroke="#1262AE" stroke-width="1.67363"/>
<path d="M106.389 8.68406C106.389 10.5024 104.848 12.0313 102.877 12.0313C100.906 12.0313 99.3642 10.5024 99.3642 8.68406C99.3642 6.8657 100.906 5.33681 102.877 5.33681C104.848 5.33681 106.389 6.8657 106.389 8.68406Z" fill="white" stroke="#1262AE" stroke-width="1.67363"/>
</svg>
