<svg width="66" height="66" viewBox="0 0 66 66" fill="none" xmlns="http://www.w3.org/2000/svg">
<rect width="65.387" height="65.387" rx="16" fill="#F9668D"/>
<path d="M31.5482 28.1561H33.8384V27.0217C33.8384 26.7208 33.9591 26.4323 34.1738 26.2196C34.3886 26.0068 34.6799 25.8873 34.9836 25.8873H38.4189C38.7226 25.8873 39.0139 26.0068 39.2286 26.2196C39.4434 26.4323 39.564 26.7208 39.564 27.0217V28.1561H44.1445V23.6186C44.1445 22.4151 43.6619 21.261 42.8029 20.4101C41.9439 19.5591 40.7788 19.0811 39.564 19.0811H25.8226C24.6078 19.0811 23.4428 19.5591 22.5838 20.4101C21.7248 21.261 21.2422 22.4151 21.2422 23.6186V28.1561H25.8226V27.0217C25.8226 26.7208 25.9433 26.4323 26.158 26.2196C26.3728 26.0068 26.6641 25.8873 26.9678 25.8873H30.4031C30.7068 25.8873 30.9981 26.0068 31.2128 26.2196C31.4276 26.4323 31.5482 26.7208 31.5482 27.0217V28.1561Z" fill="white"/>
<path d="M22.3894 30.4248C20.8709 30.4248 19.4147 31.0224 18.341 32.0861C17.2673 33.1497 16.6641 34.5924 16.6641 36.0967V45.1717C16.6641 45.4726 16.7847 45.7611 16.9994 45.9738C17.2142 46.1866 17.5054 46.3061 17.8091 46.3061C18.1128 46.3061 18.4041 46.1866 18.6188 45.9738C18.8336 45.7611 18.9542 45.4726 18.9542 45.1717V39.4998H46.4358V45.1717C46.4358 45.4726 46.5564 45.7611 46.7711 45.9738C46.9859 46.1866 47.2771 46.3061 47.5808 46.3061C47.8845 46.3061 48.1758 46.1866 48.3905 45.9738C48.6053 45.7611 48.7259 45.4726 48.7259 45.1717V36.0967C48.7259 34.5924 48.1227 33.1497 47.049 32.0861C45.9753 31.0224 44.519 30.4248 43.0006 30.4248H22.3894Z" fill="white"/>
</svg>
