<svg width="24" height="24" viewBox="0 0 24 24" fill="none" xmlns="http://www.w3.org/2000/svg">
<path fill-rule="evenodd" clip-rule="evenodd" d="M19.8697 13.987C19.9565 13.4953 20.0001 12.997 20 12.4976C20 12.1902 19.9834 11.9008 19.9513 11.6247C19.9445 11.5648 18.9751 13.5522 17.4242 14.811C18.5031 13.8444 19.9105 11.3223 19.8906 11.213C19.8736 11.1181 19.8543 11.0236 19.8328 10.9296C19.6474 10.1161 19.313 9.39297 18.8573 8.60686C18.7161 10.2752 18.2226 12.0524 16.9277 13.5892C18.2715 11.9765 18.7391 8.30346 18.4189 7.79762C17.1299 5.77665 14.4158 4.00781 11.5102 4.00781L11.4897 4.06115V4.01155C8.58399 4.01155 5.87009 5.78028 4.58115 7.80115C4.26084 8.30699 4.72839 11.9801 6.07221 13.5927C4.77747 12.0559 4.28387 10.2787 4.14276 8.61039C3.68672 9.3966 3.3525 10.1195 3.16708 10.9331C3.14562 11.0271 3.12635 11.1216 3.10928 11.2165C3.08947 11.3258 4.4969 13.8479 5.57582 14.8145C4.02478 13.5556 3.05543 11.5682 3.04848 11.6282C3.01548 11.918 2.9993 12.2095 3.00002 12.5012C3.00002 13.0093 3.04464 13.5069 3.13024 13.9906C3.20942 14.4379 5.01208 15.6694 5.05877 15.7081C3.74939 15.1966 3.20879 14.392 3.25798 14.5864C4.18748 18.2669 7.52042 20.9909 11.4897 20.9909V20.987L11.5102 20.9872C15.4795 20.9872 18.8124 18.2635 19.7418 14.5827C19.7911 14.3884 19.2506 15.193 17.9412 15.7045C17.9877 15.6659 19.7904 14.4345 19.8697 13.987ZM14.2546 14.3139C14.1689 14.3511 14.0821 14.3832 13.9933 14.4073C13.1794 14.629 12.0478 14.5476 11.5187 13.8564C10.9835 13.1573 11.1317 12.0231 11.5477 11.3073C11.9679 10.5846 12.5985 10.0475 13.159 9.43924C13.4275 9.14905 13.701 8.86359 13.9795 8.583C14.1603 8.40007 14.6536 8.00805 14.6434 7.74657C14.6387 7.62278 14.4138 7.40468 14.3512 7.28753C14.26 7.11684 14.203 6.94584 14.1054 6.78324C13.8893 6.42423 13.5993 6.25976 13.2088 6.18277C12.7206 6.08658 12.3704 6.12944 11.966 6.40026C11.6618 6.60405 11.3451 6.98402 10.9735 7.02408C10.3864 7.08737 7.82984 7.51124 7.70875 7.58782C8.02409 7.56447 11.8791 7.63907 12.3158 7.74657C12.8293 7.87295 12.8061 8.28676 12.4574 8.61226C11.361 9.63567 9.74581 10.2448 9.05725 11.6529C8.73517 12.3113 8.52858 12.757 8.52775 13.5271C8.52744 13.8444 8.55224 14.4955 8.94425 15.304C8.92609 15.2921 8.32468 14.5827 8.30051 13.9827C6.8497 13.0125 6.11185 11.5617 6.11185 9.67364C6.11185 6.68083 8.5155 4.25456 11.4805 4.25456C14.4455 4.25456 16.8491 6.68073 16.8491 9.67364C16.8493 11.6417 16.008 13.4622 14.2546 14.3139Z" fill="#B4282E"/>
<path fill-rule="evenodd" clip-rule="evenodd" d="M11.7129 15.958L11.0125 17.8825C10.6088 18.9916 8.89502 18.7585 8.83473 18.7585C8.69393 18.7585 8.58622 18.743 8.47852 18.6412L8.73502 18.3556C8.79613 18.4026 8.8918 18.43 8.98954 18.43C9.06944 18.43 9.94997 18.6212 10.2125 17.8825L10.9129 15.958H11.7129ZM16.6588 18.3713L16.5406 18.696H14.131L15.1275 15.958H15.9361L15.0576 18.3713H16.6588ZM13.0665 15.9649L10.9316 18.7026H11.3462L11.8866 17.9595H12.8536L12.6925 18.7026H13.5443L14.1985 15.9649H13.0665ZM12.168 17.5712L13.2694 16.2233L12.966 17.5712H12.168Z" fill="white"/>
</svg>
