<svg width="24" height="24" viewBox="0 0 24 24" fill="none" xmlns="http://www.w3.org/2000/svg">
<path d="M10.1839 20.5066H8.64437L11.7548 16.0806C11.7548 16.0806 12.2196 15.1639 11.612 14.1949L7.27674 7.72178C7.27674 7.72178 6.89671 7.1216 7.27674 6.54544L8.55965 4.81475L13.6477 12.3093C13.6477 12.3093 14.9597 13.8785 13.534 15.823L10.1839 20.5066Z" fill="#FCB130"/>
<path d="M13.9019 19.1491L15.7924 16.5519C15.7924 16.5519 16.3443 15.4804 17.77 15.4804H19.7767L21.1758 17.4686C21.1758 17.4686 20.072 17.366 19.5782 18.0753L17.5158 20.8798C17.5158 20.8798 16.8429 22.1914 15.0444 22.1914H5.32816L9.02441 17.0757C9.02441 17.0757 9.54725 16.4756 8.81624 15.4804L5.52665 10.7139C5.52665 10.7139 4.71817 10.009 5.5557 8.80206L6.51667 7.4904L11.0868 14.1709C11.0868 14.1709 11.8952 15.0875 11.0868 16.1875L7.65435 21.0129H14.8919C14.8919 21.0129 15.7077 21.1482 16.4096 20.2054L18.2081 17.7108C18.2081 17.7108 18.6172 16.8706 19.5201 16.5279H18.0653C18.0653 16.5279 17.3053 16.5541 16.7267 17.3682L15.1291 19.5965C15.1291 19.5965 14.5482 20.5393 13.2653 20.5393H10.7358L13.7881 16.2682C13.7881 16.2682 15.4511 14.2975 14.2819 12.4882L9.2229 4.94348C9.2229 4.94348 8.84286 4.29093 9.28099 3.6842L10.3848 2.19141L16.1458 10.5567C16.1458 10.5567 16.9906 11.8095 16.9906 12.7785C16.9906 13.7475 16.3177 14.8453 15.9449 15.4018L13.4081 18.9679C13.4081 18.9679 13.1225 19.3106 13.3234 19.4393C13.5291 19.5681 13.73 19.3368 13.9019 19.1491Z" fill="#FCB130"/>
</svg>
