<svg width="35" height="46" viewBox="0 0 35 46" fill="none" xmlns="http://www.w3.org/2000/svg">
<path fill-rule="evenodd" clip-rule="evenodd" d="M34.5003 25.9751C34.6779 24.9916 34.7671 23.9949 34.7668 22.9962C34.7668 22.3814 34.7328 21.8026 34.6673 21.2503C34.6533 21.1306 32.6708 25.1053 29.499 27.623C31.7055 25.6897 34.5837 20.6456 34.5431 20.4269C34.5082 20.2371 34.4688 20.0481 34.4249 19.8601C34.0457 18.2331 33.3618 16.7869 32.4298 15.2147C32.141 18.5513 31.1317 22.1058 28.4836 25.1794C31.2319 21.9541 32.1881 14.6079 31.5332 13.5962C28.8972 9.55427 23.3466 6.0166 17.4042 6.0166L17.3624 6.12327V6.02407C11.4198 6.02407 5.86962 9.56153 3.23362 13.6033C2.57854 14.615 3.53474 21.9611 6.283 25.1865C3.63511 22.1128 2.62565 18.5583 2.33706 15.2218C1.40442 16.7942 0.720906 18.24 0.341696 19.8672C0.29781 20.0552 0.2584 20.2442 0.223498 20.4339C0.182967 20.6527 3.06131 25.6968 5.26781 27.6301C2.09578 25.1122 0.113364 21.1375 0.0991467 21.2574C0.0316613 21.837 -0.00142737 22.42 4.71829e-05 23.0033C4.71829e-05 24.0196 0.091295 25.0148 0.266364 25.9821C0.428276 26.8767 4.11491 29.3399 4.2104 29.4173C1.53259 28.3942 0.427003 26.785 0.527588 27.1737C2.42852 34.5348 9.24474 39.9827 17.3624 39.9827V39.9751L17.4042 39.9755C25.5219 39.9755 32.3381 34.528 34.2388 27.1664C34.3396 26.7778 33.2342 28.3869 30.5562 29.41C30.6515 29.3328 34.3381 26.8699 34.5003 25.9751V25.9751ZM23.0168 26.6288C22.8415 26.7033 22.6641 26.7674 22.4825 26.8155C20.8179 27.259 18.5036 27.0961 17.4216 25.7138C16.3271 24.3155 16.6301 22.0472 17.481 20.6155C18.3402 19.1701 19.63 18.096 20.7761 16.8795C21.3252 16.2991 21.8847 15.7282 22.4543 15.167C22.8239 14.8011 23.8327 14.0171 23.8119 13.4941C23.8024 13.2465 23.3423 12.8103 23.2144 12.576C23.0278 12.2347 22.9113 11.8927 22.7117 11.5675C22.2699 10.8494 21.6767 10.5205 20.878 10.3665C19.8796 10.1741 19.1634 10.2599 18.3364 10.8015C17.7142 11.2091 17.0666 11.969 16.3067 12.0491C15.106 12.1757 9.87753 13.0235 9.62989 13.1766C10.2748 13.1299 18.1586 13.2791 19.0518 13.4941C20.102 13.7469 20.0544 14.5745 19.3414 15.2255C17.0991 17.2723 13.7959 18.4905 12.3877 21.3068C11.729 22.6235 11.3065 23.5151 11.3048 25.0551C11.3042 25.6897 11.3549 26.9919 12.1566 28.609C12.1195 28.5851 10.8895 27.1665 10.8401 25.9663C7.87305 24.026 6.36406 21.1244 6.36406 17.3483C6.36406 11.3626 11.2798 6.51009 17.3435 6.51009C23.4073 6.51009 28.3228 11.3624 28.3228 17.3483C28.3232 21.2844 26.6026 24.9254 23.0168 26.6288V26.6288Z" fill="#B4282E"/>
<path fill-rule="evenodd" clip-rule="evenodd" d="M17.8178 29.917L16.3854 33.7659C15.5597 35.9842 12.0549 35.5181 11.9316 35.5181C11.6437 35.5181 11.4234 35.4869 11.2031 35.2834L11.7277 34.7123C11.8527 34.8063 12.0483 34.8611 12.2482 34.8611C12.4116 34.8611 14.2124 35.2433 14.7493 33.7659L16.1817 29.917H17.8178V29.917ZM27.9327 34.7436L27.691 35.3929H22.763L24.801 29.917H26.4547L24.658 34.7436H27.9327V34.7436ZM20.586 29.9307L16.2199 35.4062H17.0678L18.173 33.9199H20.1507L19.8212 35.4062H21.5632L22.9011 29.9307H20.586V29.9307ZM18.7485 33.1434L21.001 30.4476L20.3805 33.1434H18.7485V33.1434Z" fill="white"/>
</svg>
