<svg width="174" height="34" viewBox="0 0 174 34" fill="none" xmlns="http://www.w3.org/2000/svg">
<g clip-path="url(#clip0_2_39058)">
<path d="M129.851 8.36176C131.214 8.36176 132.452 8.53515 133.564 8.88194C134.676 9.22872 135.615 9.67715 136.38 10.2272C136.858 10.5621 137.235 10.9328 137.51 11.3393C137.785 11.7459 137.923 12.2721 137.923 12.9178V25.4739L137.917 25.8153C137.877 26.9389 137.64 27.9193 137.205 28.7564C136.727 29.6772 136.075 30.4425 135.25 31.0523C134.425 31.6622 133.456 32.1106 132.344 32.3976C131.232 32.6846 130.042 32.8281 128.775 32.8281C126.598 32.8281 124.888 32.5352 123.645 31.9492C122.401 31.3633 121.779 30.4126 121.779 29.0972C121.779 28.5471 121.893 28.0628 122.12 27.6443C122.347 27.2257 122.604 26.9088 122.891 26.6936C123.585 27.0763 124.368 27.3991 125.241 27.6622C126.114 27.9253 127.017 28.0568 127.95 28.0568C129.241 28.0568 130.269 27.8416 131.035 27.4111C131.8 26.9806 132.183 26.287 132.183 25.3304V24.7564L131.91 24.8684C130.983 25.2242 129.878 25.4021 128.595 25.4021C127.519 25.4021 126.497 25.2407 125.528 24.9178C124.559 24.5949 123.71 24.0927 122.981 23.4111C122.251 22.7295 121.665 21.8505 121.223 20.7743C120.781 19.6981 120.559 18.4186 120.559 16.9357C120.559 15.4769 120.793 14.2093 121.259 13.1331C121.725 12.0568 122.371 11.1659 123.196 10.4604C124.021 9.75488 125.002 9.22872 126.138 8.88194C127.274 8.53515 128.512 8.36176 129.851 8.36176ZM33.2869 8.91868C35.4197 8.91868 37.165 9.39726 38.5227 10.3544C39.8804 11.3116 40.6841 13.0022 40.9338 15.4263H36.3769L36.3333 15.1582C36.2301 14.6295 36.0313 14.1467 35.737 13.7097C35.2377 13.023 34.4626 12.6797 33.4118 12.6797C31.9136 12.6797 30.8888 13.4236 30.3374 14.9113C30.0461 15.702 29.9004 16.7528 29.9004 18.0637C29.9004 19.3122 30.0461 20.3162 30.3374 21.0757C30.868 22.4906 31.8668 23.1981 33.3337 23.1981C34.3741 23.1981 35.1128 22.9172 35.5498 22.3553C35.9867 21.7935 36.252 21.0653 36.3457 20.1705H40.887L40.8561 20.4813C40.7054 21.7195 40.2267 22.8956 39.42 24.0096C38.0259 25.9551 35.9607 26.9279 33.2245 26.9279C30.4883 26.9279 28.4751 26.1164 27.185 24.4934C25.8949 22.8703 25.2499 20.7635 25.2499 18.173C25.2499 15.2495 25.9626 12.9762 27.3879 11.3532C28.8132 9.73018 30.7796 8.91868 33.2869 8.91868ZM74.6185 8.87186C76.0334 8.87186 77.3079 9.13716 78.4419 9.66776C79.5759 10.1984 80.5123 11.0359 81.251 12.1803C81.9168 13.1895 82.3486 14.3599 82.5462 15.6916C82.6607 16.4719 82.7075 17.5956 82.6867 19.0625H71.0447L71.0606 19.3583C71.1718 20.9077 71.7023 22.0056 72.6521 22.6519C73.2659 23.0784 74.0046 23.2917 74.8681 23.2917C75.7837 23.2917 76.5276 23.0316 77.0998 22.5114C77.4119 22.2305 77.6876 21.8404 77.9269 21.341H82.4682L82.4345 21.5741C82.2705 22.5079 81.7563 23.455 80.892 24.4153C79.4355 26.0696 77.3963 26.8967 74.7745 26.8967C72.6105 26.8967 70.7014 26.1996 69.0471 24.8055C67.3929 23.4113 66.5658 21.1433 66.5658 18.0013C66.5658 15.057 67.3123 12.7993 68.8053 11.2283C70.2982 9.65736 72.236 8.87186 74.6185 8.87186ZM105.848 2.62185C106.374 2.62185 106.846 2.65772 107.265 2.72947C107.683 2.80122 108.036 2.94472 108.323 3.15996C108.61 3.37521 108.831 3.66818 108.987 4.03889C109.142 4.40959 109.22 4.8939 109.22 5.4918V26.299L109.099 26.3206C108.843 26.366 108.495 26.4245 108.054 26.4963C107.54 26.58 107.019 26.6218 106.493 26.6218C105.967 26.6218 105.495 26.586 105.076 26.5142C104.658 26.4425 104.305 26.299 104.018 26.0837C103.731 25.8685 103.51 25.5755 103.354 25.2048C103.199 24.8341 103.121 24.3498 103.121 23.7519V2.94472L103.242 2.92312C103.498 2.87773 103.846 2.81916 104.287 2.74741C104.801 2.6637 105.321 2.62185 105.848 2.62185ZM115.015 8.82812C115.541 8.82812 116.014 8.864 116.432 8.93575C116.851 9.0075 117.203 9.151 117.49 9.36624C117.777 9.58149 117.999 9.87446 118.154 10.2452C118.31 10.6159 118.387 11.1002 118.387 11.6981V26.299L118.267 26.3206C118.011 26.366 117.662 26.4245 117.221 26.4963C116.707 26.58 116.187 26.6218 115.661 26.6218C115.135 26.6218 114.662 26.586 114.244 26.5142C113.825 26.4425 113.473 26.299 113.186 26.0837C112.899 25.8685 112.677 25.5755 112.522 25.2048C112.366 24.8341 112.289 24.3498 112.289 23.7519V9.151L112.409 9.1294C112.665 9.08401 113.014 9.02543 113.455 8.95369C113.969 8.86998 114.489 8.82812 115.015 8.82812ZM143.574 2.62185C144.101 2.62185 144.573 2.65772 144.991 2.72947C145.41 2.80122 145.763 2.94472 146.05 3.15996C146.337 3.37521 146.558 3.66818 146.713 4.03889C146.869 4.40959 146.947 4.8939 146.947 5.4918V9.0075L147.071 8.96181C147.378 8.85326 147.809 8.73097 148.364 8.59494C148.997 8.43949 149.697 8.36176 150.462 8.36176C152.83 8.36176 154.678 8.95369 156.005 10.1375C157.332 11.3214 157.996 13.0852 157.996 15.429V26.299L157.885 26.3297C157.646 26.3912 157.307 26.4527 156.866 26.5142C156.352 26.586 155.82 26.6218 155.27 26.6218C154.743 26.6218 154.271 26.586 153.852 26.5142C153.434 26.4425 153.081 26.299 152.794 26.0837C152.507 25.8685 152.286 25.5755 152.131 25.2048C151.975 24.8341 151.897 24.3498 151.897 23.7519V15.7878L151.893 15.5667C151.858 14.7031 151.614 14.0892 151.162 13.725C150.672 13.3304 150.068 13.1331 149.35 13.1331C148.872 13.1331 148.417 13.1928 147.987 13.3124C147.557 13.432 147.21 13.5755 146.947 13.7429V26.299L146.836 26.3297C146.597 26.3912 146.257 26.4527 145.817 26.5142C145.302 26.586 144.77 26.6218 144.22 26.6218C143.694 26.6218 143.222 26.586 142.803 26.5142C142.385 26.4425 142.032 26.299 141.745 26.0837C141.458 25.8685 141.237 25.5755 141.081 25.2048C140.926 24.8341 140.848 24.3498 140.848 23.7519V2.94472L140.968 2.92312C141.225 2.87773 141.573 2.81916 142.014 2.74741C142.528 2.6637 143.048 2.62185 143.574 2.62185ZM100.626 4.59494L100.708 4.73395C100.843 4.9781 100.965 5.28453 101.075 5.65324C101.206 6.09569 101.272 6.55608 101.272 7.0344C101.272 7.96714 101.075 8.63082 100.68 9.02543C100.285 9.42005 99.7533 9.61736 99.0836 9.61736H91.55V13.6712H99.4065L99.4997 13.8097C99.6508 14.0522 99.7812 14.3528 99.8908 14.7115C100.022 15.142 100.088 15.5964 100.088 16.0748C100.088 16.9836 99.8908 17.6353 99.4962 18.0299C99.1016 18.4245 98.5694 18.6218 97.8998 18.6218H91.6217V26.1914L91.4998 26.2221C91.2377 26.2836 90.8658 26.3451 90.3841 26.4066C89.822 26.4783 89.266 26.5142 88.7159 26.5142C88.1658 26.5142 87.6815 26.4724 87.263 26.3887C86.8445 26.305 86.4917 26.1555 86.2047 25.9402C85.9177 25.725 85.7025 25.426 85.559 25.0434C85.4155 24.6607 85.3437 24.1585 85.3437 23.5366V7.93126L85.3499 7.67865C85.3956 6.76883 85.6925 6.03988 86.2406 5.4918C86.8385 4.8939 87.6516 4.59494 88.68 4.59494H100.626ZM16.3082 3.36298V7.40491H4.7754V12.6953H14.8724V16.6904H4.7754V26.3349H0V3.36298H16.3082ZM22.8234 9.32443V26.3349H18.3133V9.32443H22.8234ZM47.4022 3.4098V15.8009L52.9423 9.40246H58.4512L52.5054 15.9101L58.6853 26.3349H53.3169L49.2437 19.0625L47.4022 20.982V26.3349H43.0326V3.4098H47.4022ZM64.4827 3.33177V26.3349H60.035V3.33177H64.4827ZM158.328 4.44741C159.074 4.22322 160.346 4.17335 161.836 4.83207C163.339 5.49704 164.277 6.63764 164.649 8.25384L172.721 8.93987C172.821 8.94566 172.92 8.96591 173.019 9.00062C173.167 9.05268 173.247 9.12591 173.314 9.18324C173.478 9.32381 173.531 9.4322 173.609 9.62629C173.748 9.97142 173.706 10.3776 173.525 10.6561C173.233 11.1052 172.777 11.3957 172.156 11.5278L165.639 12.9128L166.79 18.3245C166.922 18.9457 167.213 19.3458 167.663 19.5248C168.113 19.7038 168.696 19.7171 169.413 19.5648C169.772 19.4886 170.135 19.38 170.505 19.239C170.875 19.0981 171.193 18.9493 171.459 18.7928C171.73 19.0099 171.977 19.2632 172.201 19.5528C172.425 19.8423 172.585 20.214 172.682 20.668C173.038 22.3462 170.397 23.9316 168.666 24.2427C167.062 24.5308 164.602 24.7702 163.195 21.0855C161.789 17.4008 159.58 11.2243 157.894 6.07713C157.748 5.63294 157.658 5.19666 157.814 4.83666C157.899 4.64208 157.96 4.55808 158.328 4.44741ZM130.138 13.1331C128.966 13.1331 128.087 13.4619 127.501 14.1196C126.915 14.7773 126.622 15.716 126.622 16.9357C126.622 18.3229 126.915 19.3214 127.501 19.9313C128.087 20.5411 128.834 20.8461 129.743 20.8461C130.724 20.8461 131.501 20.6189 132.075 20.1644V13.5636L131.965 13.5062C131.806 13.4296 131.598 13.3531 131.34 13.2766C131.017 13.1809 130.616 13.1331 130.138 13.1331ZM74.6185 12.5392C73.5885 12.5392 72.79 12.8618 72.2229 13.5068C71.6559 14.1519 71.2996 15.0258 71.1539 16.1286H78.0674C77.9945 14.953 77.6382 14.0608 76.9984 13.4522C76.3585 12.8436 75.5652 12.5392 74.6185 12.5392ZM22.8234 3.19132V7.29566H18.3133V3.19132H22.8234ZM115.338 0.828125C116.342 0.828125 117.15 1.13904 117.76 1.76086C118.369 2.38268 118.674 3.14801 118.674 4.05682C118.674 4.96564 118.369 5.73096 117.76 6.35279C117.15 6.97461 116.342 7.28552 115.338 7.28552C114.334 7.28552 113.526 6.97461 112.916 6.35279C112.307 5.73096 112.002 4.96564 112.002 4.05682C112.002 3.14801 112.307 2.38268 112.916 1.76086C113.526 1.13904 114.334 0.828125 115.338 0.828125Z" fill="white"/>
</g>
<defs>
<clipPath id="clip0_2_39058">
<rect width="174" height="33" fill="white" transform="translate(0 0.302734)"/>
</clipPath>
</defs>
</svg>
