<svg width="24" height="25" viewBox="0 0 24 25" fill="none" xmlns="http://www.w3.org/2000/svg">
<path d="M21.6712 19.0536C21.0284 18.4805 20.4655 17.8235 19.9979 17.1003C19.4874 16.102 19.1814 15.0117 19.0979 13.8936V10.6003C19.1023 8.844 18.4653 7.14658 17.3064 5.82691C16.1476 4.50724 14.5467 3.65617 12.8046 3.43359V2.57359C12.8046 2.33755 12.7108 2.11118 12.5439 1.94427C12.377 1.77736 12.1506 1.68359 11.9146 1.68359C11.6785 1.68359 11.4522 1.77736 11.2853 1.94427C11.1184 2.11118 11.0246 2.33755 11.0246 2.57359V3.44693C9.29809 3.68555 7.71656 4.54176 6.57294 5.857C5.42931 7.17223 4.80107 8.85736 4.80458 10.6003V13.8936C4.72109 15.0117 4.4151 16.102 3.90458 17.1003C3.44517 17.8218 2.89138 18.4788 2.25792 19.0536C2.1868 19.1161 2.12981 19.193 2.09073 19.2792C2.05165 19.3654 2.03137 19.4589 2.03125 19.5536V20.4603C2.03125 20.6371 2.10149 20.8066 2.22651 20.9317C2.35154 21.0567 2.52111 21.1269 2.69792 21.1269H21.2312C21.4081 21.1269 21.5776 21.0567 21.7027 20.9317C21.8277 20.8066 21.8979 20.6371 21.8979 20.4603V19.5536C21.8978 19.4589 21.8775 19.3654 21.8384 19.2792C21.7994 19.193 21.7424 19.1161 21.6712 19.0536ZM3.41792 19.7936C4.03819 19.1944 4.58432 18.5229 5.04458 17.7936C5.68766 16.5879 6.06287 15.2576 6.14458 13.8936V10.6003C6.11814 9.81895 6.2492 9.04031 6.52995 8.31071C6.81069 7.5811 7.23539 6.91545 7.77875 6.35339C8.3221 5.79134 8.97301 5.34437 9.6927 5.03911C10.4124 4.73385 11.1862 4.57653 11.9679 4.57653C12.7497 4.57653 13.5234 4.73385 14.2431 5.03911C14.9628 5.34437 15.6137 5.79134 16.1571 6.35339C16.7004 6.91545 17.1251 7.5811 17.4059 8.31071C17.6866 9.04031 17.8177 9.81895 17.7912 10.6003V13.8936C17.873 15.2576 18.2482 16.5879 18.8912 17.7936C19.3515 18.5229 19.8976 19.1944 20.5179 19.7936H3.41792Z" fill="#424242"/>
<path d="M12.0015 23.313C12.4215 23.3033 12.8245 23.1454 13.1392 22.8672C13.454 22.5891 13.6603 22.2085 13.7215 21.793H10.2148C10.2778 22.2198 10.4937 22.6093 10.8224 22.8889C11.151 23.1685 11.5701 23.3192 12.0015 23.313V23.313Z" fill="#424242"/>
<circle cx="18.457" cy="5.9375" r="3.5" fill="#F99A0E" stroke="white"/>
</svg>
