<svg width="130" height="30" viewBox="0 0 130 30" fill="none" xmlns="http://www.w3.org/2000/svg">
<g clip-path="url(#clip0_2_38841)">
<path d="M15.0016 0.599609C7.04856 0.599609 0.601562 7.04661 0.601562 14.9996C0.601562 22.9526 7.04856 29.3996 15.0016 29.3996C22.9546 29.3996 29.4016 22.9526 29.4016 14.9996C29.4016 7.04661 22.9546 0.599609 15.0016 0.599609ZM18.4126 10.5506H16.2481C15.9916 10.5506 15.7066 10.8881 15.7066 11.3366V12.8996H18.4141L18.0046 15.1286H15.7066V21.8201H13.1521V15.1286H10.8346V12.8996H13.1521V11.5886C13.1521 9.70761 14.4571 8.17911 16.2481 8.17911H18.4126V10.5506V10.5506Z" fill="white"/>
</g>
<g clip-path="url(#clip1_2_38841)">
<path d="M115.002 0.599609C107.049 0.599609 100.602 7.04661 100.602 14.9996C100.602 22.9526 107.049 29.3996 115.002 29.3996C122.955 29.3996 129.402 22.9526 129.402 14.9996C129.402 7.04661 122.955 0.599609 115.002 0.599609ZM120.859 12.3956C120.865 12.5186 120.867 12.6416 120.867 12.7616C120.867 16.5116 118.015 20.8331 112.798 20.8331C111.257 20.8357 109.747 20.3929 108.451 19.5581C108.672 19.5851 108.898 19.5956 109.128 19.5956C110.457 19.5956 111.679 19.1441 112.65 18.3821C112.058 18.3705 111.485 18.1747 111.01 17.8219C110.535 17.4691 110.182 16.977 110.001 16.4141C110.425 16.4949 110.863 16.4779 111.28 16.3646C110.638 16.2348 110.061 15.887 109.646 15.3801C109.231 14.8732 109.005 14.2385 109.005 13.5836V13.5491C109.387 13.7606 109.825 13.8896 110.29 13.9046C109.688 13.504 109.262 12.8886 109.099 12.1843C108.936 11.48 109.048 10.74 109.413 10.1156C110.125 10.9916 111.013 11.7082 112.02 12.2191C113.027 12.7299 114.13 13.0236 115.258 13.0811C115.115 12.4726 115.176 11.8337 115.434 11.2639C115.691 10.694 116.129 10.2251 116.68 9.93001C117.231 9.63492 117.865 9.53019 118.481 9.63212C119.098 9.73404 119.664 10.0369 120.091 10.4936C120.726 10.368 121.335 10.1352 121.891 9.80511C121.68 10.4623 121.237 11.0204 120.645 11.3756C121.207 11.3079 121.756 11.1567 122.274 10.9271C121.893 11.497 121.414 11.9943 120.859 12.3956V12.3956Z" fill="white"/>
</g>
<g clip-path="url(#clip2_2_38841)">
<path d="M69.5016 14.9996C69.5016 16.1931 69.0275 17.3377 68.1835 18.1816C67.3396 19.0255 66.195 19.4996 65.0016 19.4996C63.8081 19.4996 62.6635 19.0255 61.8196 18.1816C60.9757 17.3377 60.5016 16.1931 60.5016 14.9996C60.5016 14.7431 60.5286 14.4926 60.5751 14.2496H59.0016V20.2451C59.0016 20.6621 59.3391 20.9996 59.7561 20.9996H70.2486C70.4484 20.9992 70.6399 20.9195 70.7811 20.7781C70.9223 20.6366 71.0016 20.445 71.0016 20.2451V14.2496H69.4281C69.4746 14.4926 69.5016 14.7431 69.5016 14.9996V14.9996ZM65.0016 17.9996C65.3956 17.9995 65.7858 17.9218 66.1498 17.7709C66.5139 17.62 66.8446 17.3989 67.1232 17.1202C67.4018 16.8415 67.6227 16.5106 67.7734 16.1465C67.9241 15.7824 68.0017 15.3922 68.0016 14.9981C68.0015 14.604 67.9238 14.2139 67.7729 13.8498C67.622 13.4858 67.4009 13.1551 67.1221 12.8765C66.8434 12.5979 66.5126 12.377 66.1485 12.2262C65.7844 12.0755 65.3941 11.998 65.0001 11.9981C64.2042 11.9983 63.441 12.3146 62.8784 12.8775C62.3158 13.4404 61.9999 14.2038 62.0001 14.9996C62.0003 15.7955 62.3166 16.5586 62.8795 17.1212C63.4424 17.6839 64.2057 17.9998 65.0016 17.9996V17.9996ZM68.6016 11.8496H70.4001C70.5196 11.8496 70.6342 11.8022 70.7188 11.7179C70.8034 11.6336 70.8512 11.5191 70.8516 11.3996V9.60111C70.8516 9.48136 70.804 9.36652 70.7193 9.28185C70.6347 9.19718 70.5198 9.14961 70.4001 9.14961H68.6016C68.4818 9.14961 68.367 9.19718 68.2823 9.28185C68.1976 9.36652 68.1501 9.48136 68.1501 9.60111V11.3996C68.1516 11.6471 68.3541 11.8496 68.6016 11.8496V11.8496ZM65.0016 0.599609C61.1824 0.599609 57.5197 2.11675 54.8192 4.81727C52.1187 7.5178 50.6016 11.1805 50.6016 14.9996C50.6016 18.8187 52.1187 22.4814 54.8192 25.1819C57.5197 27.8825 61.1824 29.3996 65.0016 29.3996C66.8926 29.3996 68.7651 29.0271 70.5122 28.3035C72.2593 27.5798 73.8467 26.5191 75.1839 25.1819C76.5211 23.8448 77.5818 22.2573 78.3054 20.5103C79.0291 18.7632 79.4016 16.8906 79.4016 14.9996C79.4016 13.1086 79.0291 11.2361 78.3054 9.48897C77.5818 7.74188 76.5211 6.15444 75.1839 4.81727C73.8467 3.48011 72.2593 2.41941 70.5122 1.69574C68.7651 0.972076 66.8926 0.599609 65.0016 0.599609V0.599609ZM72.5016 20.8331C72.5016 21.7496 71.7516 22.4996 70.8351 22.4996H59.1681C58.2516 22.4996 57.5016 21.7496 57.5016 20.8331V9.16611C57.5016 8.24961 58.2516 7.49961 59.1681 7.49961H70.8351C71.7516 7.49961 72.5016 8.24961 72.5016 9.16611V20.8331V20.8331Z" fill="white"/>
</g>
<defs>
<clipPath id="clip0_2_38841">
<rect width="30" height="30" fill="white"/>
</clipPath>
<clipPath id="clip1_2_38841">
<rect width="30" height="30" fill="white" transform="translate(100)"/>
</clipPath>
<clipPath id="clip2_2_38841">
<rect width="30" height="30" fill="white" transform="translate(50)"/>
</clipPath>
</defs>
</svg>
