<svg width="130" height="31" viewBox="0 0 130 31" fill="none" xmlns="http://www.w3.org/2000/svg">
<g clip-path="url(#clip0_2_39061)">
<path d="M15.0016 0.902344C7.04856 0.902344 0.601562 7.34934 0.601562 15.3023C0.601562 23.2553 7.04856 29.7023 15.0016 29.7023C22.9546 29.7023 29.4016 23.2553 29.4016 15.3023C29.4016 7.34934 22.9546 0.902344 15.0016 0.902344ZM18.4126 10.8533H16.2481C15.9916 10.8533 15.7066 11.1908 15.7066 11.6393V13.2023H18.4141L18.0046 15.4313H15.7066V22.1228H13.1521V15.4313H10.8346V13.2023H13.1521V11.8913C13.1521 10.0103 14.4571 8.48184 16.2481 8.48184H18.4126V10.8533Z" fill="white"/>
</g>
<g clip-path="url(#clip1_2_39061)">
<path d="M115.002 0.902344C107.049 0.902344 100.602 7.34934 100.602 15.3023C100.602 23.2553 107.049 29.7023 115.002 29.7023C122.955 29.7023 129.402 23.2553 129.402 15.3023C129.402 7.34934 122.955 0.902344 115.002 0.902344ZM120.859 12.6983C120.865 12.8213 120.867 12.9443 120.867 13.0643C120.867 16.8143 118.015 21.1358 112.798 21.1358C111.257 21.1384 109.747 20.6957 108.451 19.8608C108.672 19.8878 108.898 19.8983 109.128 19.8983C110.457 19.8983 111.679 19.4468 112.65 18.6848C112.058 18.6732 111.485 18.4774 111.01 18.1246C110.535 17.7719 110.182 17.2797 110.001 16.7168C110.425 16.7976 110.863 16.7807 111.28 16.6673C110.638 16.5375 110.061 16.1897 109.646 15.6828C109.231 15.176 109.005 14.5413 109.005 13.8863V13.8518C109.387 14.0633 109.825 14.1923 110.29 14.2073C109.688 13.8067 109.262 13.1913 109.099 12.487C108.936 11.7827 109.048 11.0427 109.413 10.4183C110.125 11.2943 111.013 12.011 112.02 12.5218C113.027 13.0327 114.13 13.3263 115.258 13.3838C115.115 12.7753 115.176 12.1365 115.434 11.5666C115.691 10.9967 116.129 10.5278 116.68 10.2327C117.231 9.93765 117.865 9.83293 118.481 9.93485C119.098 10.0368 119.664 10.3396 120.091 10.7963C120.726 10.6708 121.335 10.4379 121.891 10.1078C121.68 10.765 121.237 11.3231 120.645 11.6783C121.207 11.6106 121.756 11.4595 122.274 11.2298C121.893 11.7997 121.414 12.297 120.859 12.6983Z" fill="white"/>
</g>
<g clip-path="url(#clip2_2_39061)">
<path d="M69.5016 15.3023C69.5016 16.4958 69.0275 17.6404 68.1835 18.4843C67.3396 19.3282 66.195 19.8023 65.0016 19.8023C63.8081 19.8023 62.6635 19.3282 61.8196 18.4843C60.9757 17.6404 60.5016 16.4958 60.5016 15.3023C60.5016 15.0458 60.5286 14.7953 60.5751 14.5523H59.0016V20.5478C59.0016 20.9648 59.3391 21.3023 59.7561 21.3023H70.2486C70.4484 21.3019 70.6399 21.2223 70.7811 21.0808C70.9223 20.9394 71.0016 20.7477 71.0016 20.5478V14.5523H69.4281C69.4746 14.7953 69.5016 15.0458 69.5016 15.3023ZM65.0016 18.3023C65.3956 18.3022 65.7858 18.2245 66.1498 18.0736C66.5139 17.9227 66.8446 17.7016 67.1232 17.4229C67.4018 17.1442 67.6227 16.8133 67.7734 16.4492C67.9241 16.0851 68.0017 15.6949 68.0016 15.3008C68.0015 14.9068 67.9238 14.5166 67.7729 14.1526C67.622 13.7885 67.4009 13.4578 67.1221 13.1792C66.8434 12.9006 66.5126 12.6797 66.1485 12.529C65.7844 12.3783 65.3941 12.3007 65.0001 12.3008C64.2042 12.301 63.441 12.6174 62.8784 13.1803C62.3158 13.7432 61.9999 14.5065 62.0001 15.3023C62.0003 16.0982 62.3166 16.8614 62.8795 17.424C63.4424 17.9866 64.2057 18.3025 65.0016 18.3023ZM68.6016 12.1523H70.4001C70.5196 12.1523 70.6342 12.105 70.7188 12.0206C70.8034 11.9363 70.8512 11.8218 70.8516 11.7023V9.90384C70.8516 9.7841 70.804 9.66926 70.7193 9.58459C70.6347 9.49991 70.5198 9.45234 70.4001 9.45234H68.6016C68.4818 9.45234 68.367 9.49991 68.2823 9.58459C68.1976 9.66926 68.1501 9.7841 68.1501 9.90384V11.7023C68.1516 11.9498 68.3541 12.1523 68.6016 12.1523ZM65.0016 0.902344C61.1824 0.902344 57.5197 2.41948 54.8192 5.12001C52.1187 7.82053 50.6016 11.4832 50.6016 15.3023C50.6016 19.1215 52.1187 22.7842 54.8192 25.4847C57.5197 28.1852 61.1824 29.7023 65.0016 29.7023C66.8926 29.7023 68.7651 29.3299 70.5122 28.6062C72.2593 27.8825 73.8467 26.8218 75.1839 25.4847C76.5211 24.1475 77.5818 22.5601 78.3054 20.813C79.0291 19.0659 79.4016 17.1934 79.4016 15.3023C79.4016 13.4113 79.0291 11.5388 78.3054 9.7917C77.5818 8.04461 76.5211 6.45717 75.1839 5.12001C73.8467 3.78284 72.2593 2.72215 70.5122 1.99848C68.7651 1.27481 66.8926 0.902344 65.0016 0.902344ZM72.5016 21.1358C72.5016 22.0523 71.7516 22.8023 70.8351 22.8023H59.1681C58.2516 22.8023 57.5016 22.0523 57.5016 21.1358V9.46884C57.5016 8.55234 58.2516 7.80234 59.1681 7.80234H70.8351C71.7516 7.80234 72.5016 8.55234 72.5016 9.46884V21.1358Z" fill="white"/>
</g>
<defs>
<clipPath id="clip0_2_39061">
<rect width="30" height="30" fill="white" transform="translate(0 0.302734)"/>
</clipPath>
<clipPath id="clip1_2_39061">
<rect width="30" height="30" fill="white" transform="translate(100 0.302734)"/>
</clipPath>
<clipPath id="clip2_2_39061">
<rect width="30" height="30" fill="white" transform="translate(50 0.302734)"/>
</clipPath>
</defs>
</svg>
