<svg width="130" height="31" viewBox="0 0 130 31" fill="none" xmlns="http://www.w3.org/2000/svg">
<g clip-path="url(#clip0_2_38416)">
<path d="M15.0016 0.986328C7.04856 0.986328 0.601562 7.43333 0.601562 15.3863C0.601562 23.3393 7.04856 29.7863 15.0016 29.7863C22.9546 29.7863 29.4016 23.3393 29.4016 15.3863C29.4016 7.43333 22.9546 0.986328 15.0016 0.986328ZM18.4126 10.9373H16.2481C15.9916 10.9373 15.7066 11.2748 15.7066 11.7233V13.2863H18.4141L18.0046 15.5153H15.7066V22.2068H13.1521V15.5153H10.8346V13.2863H13.1521V11.9753C13.1521 10.0943 14.4571 8.56583 16.2481 8.56583H18.4126V10.9373V10.9373Z" fill="white"/>
</g>
<g clip-path="url(#clip1_2_38416)">
<path d="M115.002 0.986328C107.049 0.986328 100.602 7.43333 100.602 15.3863C100.602 23.3393 107.049 29.7863 115.002 29.7863C122.955 29.7863 129.402 23.3393 129.402 15.3863C129.402 7.43333 122.955 0.986328 115.002 0.986328ZM120.859 12.7823C120.865 12.9053 120.867 13.0283 120.867 13.1483C120.867 16.8983 118.015 21.2198 112.798 21.2198C111.257 21.2224 109.747 20.7796 108.451 19.9448C108.672 19.9718 108.898 19.9823 109.128 19.9823C110.457 19.9823 111.679 19.5308 112.65 18.7688C112.058 18.7572 111.485 18.5614 111.01 18.2086C110.535 17.8558 110.182 17.3637 110.001 16.8008C110.425 16.8816 110.863 16.8647 111.28 16.7513C110.638 16.6215 110.061 16.2737 109.646 15.7668C109.231 15.26 109.005 14.6252 109.005 13.9703V13.9358C109.387 14.1473 109.825 14.2763 110.29 14.2913C109.688 13.8907 109.262 13.2753 109.099 12.571C108.936 11.8667 109.048 11.1267 109.413 10.5023C110.125 11.3783 111.013 12.0949 112.02 12.6058C113.027 13.1166 114.13 13.4103 115.258 13.4678C115.115 12.8593 115.176 12.2204 115.434 11.6506C115.691 11.0807 116.129 10.6118 116.68 10.3167C117.231 10.0216 117.865 9.91691 118.481 10.0188C119.098 10.1208 119.664 10.4236 120.091 10.8803C120.726 10.7547 121.335 10.5219 121.891 10.1918C121.68 10.849 121.237 11.4071 120.645 11.7623C121.207 11.6946 121.756 11.5434 122.274 11.3138C121.893 11.8837 121.414 12.381 120.859 12.7823V12.7823Z" fill="white"/>
</g>
<g clip-path="url(#clip2_2_38416)">
<path d="M69.5016 15.3863C69.5016 16.5798 69.0275 17.7244 68.1835 18.5683C67.3396 19.4122 66.195 19.8863 65.0016 19.8863C63.8081 19.8863 62.6635 19.4122 61.8196 18.5683C60.9757 17.7244 60.5016 16.5798 60.5016 15.3863C60.5016 15.1298 60.5286 14.8793 60.5751 14.6363H59.0016V20.6318C59.0016 21.0488 59.3391 21.3863 59.7561 21.3863H70.2486C70.4484 21.3859 70.6399 21.3063 70.7811 21.1648C70.9223 21.0234 71.0016 20.8317 71.0016 20.6318V14.6363H69.4281C69.4746 14.8793 69.5016 15.1298 69.5016 15.3863V15.3863ZM65.0016 18.3863C65.3956 18.3862 65.7858 18.3085 66.1498 18.1576C66.5139 18.0067 66.8446 17.7856 67.1232 17.5069C67.4018 17.2282 67.6227 16.8973 67.7734 16.5332C67.9241 16.1691 68.0017 15.7789 68.0016 15.3848C68.0015 14.9908 67.9238 14.6006 67.7729 14.2365C67.622 13.8725 67.4009 13.5418 67.1221 13.2632C66.8434 12.9846 66.5126 12.7637 66.1485 12.613C65.7844 12.4622 65.3941 12.3847 65.0001 12.3848C64.2042 12.385 63.441 12.7014 62.8784 13.2643C62.3158 13.8271 61.9999 14.5905 62.0001 15.3863C62.0003 16.1822 62.3166 16.9454 62.8795 17.508C63.4424 18.0706 64.2057 18.3865 65.0016 18.3863V18.3863ZM68.6016 12.2363H70.4001C70.5196 12.2363 70.6342 12.189 70.7188 12.1046C70.8034 12.0203 70.8512 11.9058 70.8516 11.7863V9.98783C70.8516 9.86808 70.804 9.75324 70.7193 9.66857C70.6347 9.5839 70.5198 9.53633 70.4001 9.53633H68.6016C68.4818 9.53633 68.367 9.5839 68.2823 9.66857C68.1976 9.75324 68.1501 9.86808 68.1501 9.98783V11.7863C68.1516 12.0338 68.3541 12.2363 68.6016 12.2363V12.2363ZM65.0016 0.986328C61.1824 0.986328 57.5197 2.50347 54.8192 5.20399C52.1187 7.90451 50.6016 11.5672 50.6016 15.3863C50.6016 19.2054 52.1187 22.8681 54.8192 25.5687C57.5197 28.2692 61.1824 29.7863 65.0016 29.7863C66.8926 29.7863 68.7651 29.4139 70.5122 28.6902C72.2593 27.9665 73.8467 26.9058 75.1839 25.5687C76.5211 24.2315 77.5818 22.6441 78.3054 20.897C79.0291 19.1499 79.4016 17.2774 79.4016 15.3863C79.4016 13.4953 79.0291 11.6228 78.3054 9.87569C77.5818 8.1286 76.5211 6.54115 75.1839 5.20399C73.8467 3.86683 72.2593 2.80613 70.5122 2.08246C68.7651 1.3588 66.8926 0.986328 65.0016 0.986328V0.986328ZM72.5016 21.2198C72.5016 22.1363 71.7516 22.8863 70.8351 22.8863H59.1681C58.2516 22.8863 57.5016 22.1363 57.5016 21.2198V9.55283C57.5016 8.63633 58.2516 7.88633 59.1681 7.88633H70.8351C71.7516 7.88633 72.5016 8.63633 72.5016 9.55283V21.2198V21.2198Z" fill="white"/>
</g>
<defs>
<clipPath id="clip0_2_38416">
<rect width="30" height="30" fill="white" transform="translate(0 0.386719)"/>
</clipPath>
<clipPath id="clip1_2_38416">
<rect width="30" height="30" fill="white" transform="translate(100 0.386719)"/>
</clipPath>
<clipPath id="clip2_2_38416">
<rect width="30" height="30" fill="white" transform="translate(50 0.386719)"/>
</clipPath>
</defs>
</svg>
