<svg width="32" height="32" viewBox="0 0 32 32" fill="none" xmlns="http://www.w3.org/2000/svg">
<path d="M21.7602 1.04221C21.1013 0.38988 20.2079 0.0234375 19.2764 0.0234375C18.3449 0.0234375 17.4515 0.38988 16.7926 1.04221L1.36509 16.3272C1.03881 16.6505 0.779989 17.0342 0.603406 17.4565C0.426824 17.8789 0.335938 18.3315 0.335938 18.7886C0.335938 19.2458 0.426824 19.6984 0.603406 20.1207C0.779989 20.5431 1.03881 20.9268 1.36509 21.25L3.19534 23.0616C3.99178 23.8522 5.11148 23.7114 5.78767 23.3123C6.16067 23.0928 6.59683 23.0028 7.02726 23.0563C7.45769 23.1098 7.85787 23.3038 8.16462 23.6076C8.47136 23.9115 8.66719 24.308 8.72118 24.7344C8.77517 25.1608 8.68425 25.5929 8.46277 25.9624C8.06143 26.6323 7.91775 27.7415 8.71575 28.5305L10.5476 30.3437C10.8738 30.6669 11.2612 30.9233 11.6875 31.0983C12.1138 31.2732 12.5707 31.3632 13.0321 31.3632C13.4936 31.3632 13.9505 31.2732 14.3768 31.0983C14.8031 30.9233 15.1904 30.6669 15.5167 30.3437L30.9426 15.0617C31.2689 14.7385 31.5278 14.3548 31.7043 13.9325C31.8809 13.5101 31.9718 13.0575 31.9718 12.6004C31.9718 12.1432 31.8809 11.6906 31.7043 11.2683C31.5278 10.8459 31.2689 10.4622 30.9426 10.139L29.114 8.32581C28.3175 7.53681 27.1963 7.67604 26.5201 8.07519C26.1471 8.2946 25.7109 8.38467 25.2805 8.33119C24.8501 8.2777 24.4499 8.0837 24.1431 7.77981C23.8364 7.47593 23.6406 7.07949 23.5866 6.65307C23.5326 6.22666 23.6235 5.79458 23.845 5.42506C24.2479 4.75518 24.39 3.64593 23.592 2.85692L21.7617 1.04221H21.7602Z" fill="white"/>
</svg>
