<svg width="35" height="46" viewBox="0 0 35 46" fill="none" xmlns="http://www.w3.org/2000/svg">
<path fill-rule="evenodd" clip-rule="evenodd" d="M17.383 8.08396C8.77452 8.08396 1.72955 15.2873 1.72955 24.2575C1.72955 33.2269 8.77515 40.4296 17.383 40.4296C25.9901 40.4296 33.0351 33.227 33.0351 24.2575C33.0351 15.2872 25.9894 8.08396 17.383 8.08396ZM0.175781 24.2575C0.175781 14.5242 7.84052 6.56445 17.383 6.56445C26.9234 6.56445 34.5888 14.5243 34.5888 24.2575C34.5888 33.9901 26.9241 41.9491 17.383 41.9491C7.84131 41.9491 0.175781 33.9901 0.175781 24.2575Z" fill="#CF4037"/>
<path fill-rule="evenodd" clip-rule="evenodd" d="M22.3429 20.5448C21.5859 15.2974 17.1625 12.7063 14.3994 11.1542C11.8351 9.71456 9.53924 9.06036 9.48385 9.22912C12.4004 11.5743 14.273 15.228 14.273 19.333C14.273 26.0645 9.23388 31.5834 2.83203 32.0987L3.23681 32.7238C11.4325 31.4473 33.3649 27.3756 33.3649 27.3756L33.4231 26.8972L20.1167 26.4416C21.5852 24.8894 22.5908 22.2546 22.3429 20.5448V20.5448Z" fill="#CF4037"/>
</svg>
