<svg width="30" height="27" viewBox="0 0 30 27" fill="none" xmlns="http://www.w3.org/2000/svg">
<path d="M25.7489 4.76458C25.4337 3.90417 24.5512 3.29167 23.5111 3.29167H19.5713V1.83333C19.5713 1.03125 18.8621 0.375 17.9953 0.375H11.6916C10.8249 0.375 10.1157 1.03125 10.1157 1.83333V3.29167H6.1759C5.13578 3.29167 4.26903 3.90417 3.93808 4.76458L0.833508 13.0333C0.723193 13.3396 0.660156 13.6604 0.660156 13.9958V24.4375C0.660156 25.6479 1.71603 26.625 3.02404 26.625C4.33206 26.625 5.38793 25.6479 5.38793 24.4375V23.7083H24.299V24.4375C24.299 25.6333 25.3549 26.625 26.6629 26.625C27.9552 26.625 29.0268 25.6479 29.0268 24.4375V13.9958C29.0268 13.675 28.9638 13.3396 28.8535 13.0333L25.7489 4.76458ZM6.1759 19.3333C4.86788 19.3333 3.81201 18.3563 3.81201 17.1458C3.81201 15.9354 4.86788 14.9583 6.1759 14.9583C7.48391 14.9583 8.53978 15.9354 8.53978 17.1458C8.53978 18.3563 7.48391 19.3333 6.1759 19.3333ZM23.5111 19.3333C22.2031 19.3333 21.1472 18.3563 21.1472 17.1458C21.1472 15.9354 22.2031 14.9583 23.5111 14.9583C24.8191 14.9583 25.875 15.9354 25.875 17.1458C25.875 18.3563 24.8191 19.3333 23.5111 19.3333ZM3.81201 12.0417L6.1759 5.47917H23.5111L25.875 12.0417H3.81201Z" fill="white"/>
</svg>
