<svg width="28" height="32" viewBox="0 0 28 32" fill="none" xmlns="http://www.w3.org/2000/svg">
<path d="M0.617188 23.6673C0.617188 25.134 1.27331 26.4506 2.29955 27.3673V29.5006C2.29955 30.884 3.42674 32.0006 4.8231 32.0006C6.21946 32.0006 7.34665 30.884 7.34665 29.5006V28.6673H20.8056V29.5006C20.8056 30.8673 21.9328 32.0006 23.3291 32.0006C24.7087 32.0006 25.8527 30.884 25.8527 29.5006V27.3673C26.8789 26.4506 27.535 25.134 27.535 23.6673V7.00065C27.535 1.16732 21.5122 0.333984 14.0761 0.333984C6.64006 0.333984 0.617188 1.16732 0.617188 7.00065V23.6673ZM6.50547 25.334C5.1091 25.334 3.98192 24.2173 3.98192 22.834C3.98192 21.4506 5.1091 20.334 6.50547 20.334C7.90183 20.334 9.02901 21.4506 9.02901 22.834C9.02901 24.2173 7.90183 25.334 6.50547 25.334ZM21.6468 25.334C20.2504 25.334 19.1232 24.2173 19.1232 22.834C19.1232 21.4506 20.2504 20.334 21.6468 20.334C23.0431 20.334 24.1703 21.4506 24.1703 22.834C24.1703 24.2173 23.0431 25.334 21.6468 25.334ZM24.1703 15.334H3.98192V7.00065H24.1703V15.334Z" fill="white"/>
</svg>
