<svg width="19" height="17" viewBox="0 0 19 17" fill="none" xmlns="http://www.w3.org/2000/svg">
<path d="M18.1989 6.21023L12.561 5.48025L10.0407 0.928307C9.97186 0.803678 9.85862 0.702787 9.71873 0.641461C9.36788 0.487158 8.94154 0.615744 8.76612 0.928307L6.24584 5.48025L0.607943 6.21023C0.452507 6.23001 0.310394 6.29529 0.201588 6.3942C0.0700486 6.51465 -0.0024357 6.6767 6.24985e-05 6.84473C0.0025607 7.01277 0.079837 7.17305 0.214911 7.29035L4.294 10.8334L3.3303 15.8364C3.3077 15.9528 3.32215 16.0725 3.37203 16.1819C3.4219 16.2913 3.50519 16.3861 3.61246 16.4555C3.71972 16.5249 3.84667 16.5662 3.97891 16.5746C4.11115 16.583 4.24338 16.5582 4.36062 16.503L9.40341 14.141L14.4462 16.503C14.5839 16.5683 14.7438 16.5901 14.897 16.5664C15.2833 16.507 15.5431 16.1806 15.4765 15.8364L14.5128 10.8334L18.5919 7.29035C18.7029 7.19342 18.7762 7.06681 18.7984 6.92833C18.8584 6.58214 18.5875 6.26166 18.1989 6.21023Z" fill="#FDBF00"/>
</svg>
