<svg width="25" height="24" viewBox="0 0 25 24" fill="none" xmlns="http://www.w3.org/2000/svg">
<g clip-path="url(#clip0_2_38921)">
<path d="M12.8747 21.891C10.2513 21.891 7.73543 20.8488 5.88045 18.9939C4.02547 17.1389 2.98336 14.623 2.98336 11.9997C2.98336 9.37632 4.02547 6.86043 5.88045 5.00545C7.73543 3.15047 10.2513 2.10836 12.8747 2.10836C15.498 2.10836 18.0139 3.15047 19.8689 5.00545C21.7238 6.86043 22.766 9.37632 22.766 11.9997C22.766 14.623 21.7238 17.1389 19.8689 18.9939C18.0139 20.8488 15.498 21.891 12.8747 21.891ZM12.8747 23.304C15.8728 23.304 18.7481 22.113 20.868 19.993C22.988 17.8731 24.179 14.9978 24.179 11.9997C24.179 9.00156 22.988 6.12625 20.868 4.00628C18.7481 1.8863 15.8728 0.695313 12.8747 0.695312C9.87656 0.695313 7.00125 1.8863 4.88128 4.00628C2.7613 6.12625 1.57031 9.00156 1.57031 11.9997C1.57031 14.9978 2.7613 17.8731 4.88128 19.993C7.00125 22.113 9.87656 23.304 12.8747 23.304Z" fill="#1262AF"/>
<path d="M10.3519 7.19979C10.4852 7.13115 10.6348 7.10062 10.7843 7.11154C10.9339 7.12247 11.0775 7.17444 11.1994 7.26173L16.9041 11.3365C17.0097 11.4119 17.0958 11.5114 17.1553 11.6268C17.2147 11.7422 17.2457 11.8701 17.2457 11.9999C17.2457 12.1297 17.2147 12.2576 17.1553 12.3729C17.0958 12.4883 17.0097 12.5879 16.9041 12.6632L11.1994 16.738C11.0776 16.8252 10.934 16.8772 10.7845 16.8881C10.6351 16.899 10.4855 16.8685 10.3522 16.8C10.219 16.7314 10.1072 16.6274 10.0292 16.4995C9.95124 16.3715 9.91004 16.2245 9.91016 16.0746V7.9251C9.91 7.77529 9.95114 7.62832 10.0291 7.50037C10.107 7.37241 10.2187 7.26841 10.3519 7.19979Z" fill="#1262AF"/>
</g>
<defs>
<clipPath id="clip0_2_38921">
<rect width="24" height="24" fill="white" transform="translate(0.875)"/>
</clipPath>
</defs>
</svg>
