<svg width="25" height="26" viewBox="0 0 25 26" fill="none" xmlns="http://www.w3.org/2000/svg">
<path d="M12.5019 23.1901C9.76928 23.1901 7.14856 22.1046 5.21629 20.1723C3.28402 18.24 2.19848 15.6193 2.19848 12.8867C2.19848 10.154 3.28402 7.53332 5.21629 5.60105C7.14856 3.66879 9.76928 2.58325 12.5019 2.58325C15.2346 2.58325 17.8553 3.66879 19.7875 5.60105C21.7198 7.53332 22.8054 10.154 22.8054 12.8867C22.8054 15.6193 21.7198 18.24 19.7875 20.1723C17.8553 22.1046 15.2346 23.1901 12.5019 23.1901ZM12.5019 24.662C15.6249 24.662 18.62 23.4214 20.8284 21.2131C23.0367 19.0048 24.2773 16.0097 24.2773 12.8867C24.2773 9.76367 23.0367 6.76856 20.8284 4.56025C18.62 2.35194 15.6249 1.11133 12.5019 1.11133C9.3789 1.11133 6.38379 2.35194 4.17548 4.56025C1.96718 6.76856 0.726563 9.76367 0.726562 12.8867C0.726563 16.0097 1.96718 19.0048 4.17548 21.2131C6.38379 23.4214 9.3789 24.662 12.5019 24.662V24.662Z" fill="#1262AF"/>
<path d="M9.87417 7.88618C10.013 7.81468 10.1689 7.78287 10.3247 7.79425C10.4804 7.80563 10.6301 7.85977 10.757 7.95069L16.6994 12.1952C16.8095 12.2738 16.8992 12.3774 16.961 12.4976C17.0229 12.6178 17.0552 12.7511 17.0552 12.8863C17.0552 13.0215 17.0229 13.1547 16.961 13.2749C16.8992 13.3951 16.8095 13.4987 16.6994 13.5773L10.757 17.8218C10.6301 17.9127 10.4806 17.9668 10.3249 17.9782C10.1692 17.9895 10.0134 17.9578 9.87457 17.8863C9.73577 17.8149 9.61934 17.7066 9.5381 17.5733C9.45685 17.44 9.41394 17.2869 9.41406 17.1308V8.64171C9.4139 8.48565 9.45676 8.33256 9.53793 8.19928C9.6191 8.06599 9.73544 7.95765 9.87417 7.88618V7.88618Z" fill="#1262AF"/>
</svg>
