<svg width="25" height="25" viewBox="0 0 25 25" fill="none" xmlns="http://www.w3.org/2000/svg">
<g clip-path="url(#clip0_2_38973)">
<path d="M12.8747 22.6185C10.2513 22.6185 7.73543 21.5764 5.88045 19.7214C4.02547 17.8664 2.98336 15.3505 2.98336 12.7272C2.98336 10.1039 4.02547 7.58797 5.88045 5.73299C7.73543 3.87801 10.2513 2.83589 12.8747 2.83589C15.498 2.83589 18.0139 3.87801 19.8689 5.73299C21.7238 7.58797 22.766 10.1039 22.766 12.7272C22.766 15.3505 21.7238 17.8664 19.8689 19.7214C18.0139 21.5764 15.498 22.6185 12.8747 22.6185ZM12.8747 24.0315C15.8728 24.0315 18.7481 22.8405 20.868 20.7206C22.988 18.6006 24.179 15.7253 24.179 12.7272C24.179 9.7291 22.988 6.85379 20.868 4.73382C18.7481 2.61384 15.8728 1.42285 12.8747 1.42285C9.87656 1.42285 7.00125 2.61384 4.88128 4.73382C2.7613 6.85379 1.57031 9.7291 1.57031 12.7272C1.57031 15.7253 2.7613 18.6006 4.88128 20.7206C7.00125 22.8405 9.87656 24.0315 12.8747 24.0315Z" fill="#1262AF"/>
<path d="M10.3519 7.92733C10.4852 7.85869 10.6348 7.82815 10.7843 7.83908C10.9339 7.85001 11.0775 7.90198 11.1994 7.98927L16.9041 12.064C17.0097 12.1394 17.0958 12.239 17.1553 12.3543C17.2147 12.4697 17.2457 12.5976 17.2457 12.7274C17.2457 12.8572 17.2147 12.9851 17.1553 13.1005C17.0958 13.2159 17.0097 13.3154 16.9041 13.3908L11.1994 17.4656C11.0776 17.5528 10.934 17.6047 10.7845 17.6156C10.6351 17.6266 10.4855 17.5961 10.3522 17.5275C10.219 17.4589 10.1072 17.355 10.0292 17.227C9.95124 17.099 9.91004 16.952 9.91016 16.8022V8.65264C9.91 8.50282 9.95114 8.35586 10.0291 8.22791C10.107 8.09995 10.2187 7.99595 10.3519 7.92733Z" fill="#1262AF"/>
</g>
<defs>
<clipPath id="clip0_2_38973">
<rect width="24" height="24" fill="white" transform="translate(0.875 0.727539)"/>
</clipPath>
</defs>
</svg>
